<?xml version="1.0" encoding="UTF-8" standalone="no"?>
<!-- https://www.blobmaker.app/ -->

<svg
   viewBox="0 0 200 200"
   version="1.1"
   id="svg16"
   sodipodi:docname="chest-background.svg"
   xmlns:inkscape="http://www.inkscape.org/namespaces/inkscape"
   xmlns:sodipodi="http://sodipodi.sourceforge.net/DTD/sodipodi-0.dtd"
   xmlns="http://www.w3.org/2000/svg"
   xmlns:svg="http://www.w3.org/2000/svg">
  <defs
     id="defs20" />
  <sodipodi:namedview
     id="namedview18"
     pagecolor="#ffffff"
     bordercolor="#666666"
     borderopacity="1.0"
     inkscape:pageshadow="2"
     inkscape:pageopacity="0.0"
     inkscape:pagecheckerboard="0"
     showgrid="false" />
  <path
     fill="#4059ad"
     opacity="1"
     d="M47.2,-34.6C56.5,-26,56,-6.7,49.9,7.9C43.8,22.4,32,32.2,16.8,42.3C1.7,52.5,-16.8,62.9,-25.9,57.2C-35,51.6,-34.7,29.7,-33.8,13.5C-32.8,-2.6,-31.2,-13.1,-25.5,-20.9C-19.7,-28.7,-9.9,-33.8,4.6,-37.4C19,-41.1,38,-43.2,47.2,-34.6Z"
     transform="translate(100 100)"
     id="path2">
    <animateTransform
       attributeType="xml"
       attributeName="transform"
       type="scale"
       from="0"
       to=".8"
       dur="1.1s"
       additive="sum"
       repeatCount="indefinite" />
    <animate
       attributeName="opacity"
       values="0;.75;0"
       dur="1.1s"
       repeatCount="indefinite" />
  </path>
  <path
     fill="#97d8c4"
     opacity="0"
     d="M16.7,-21.2C25.1,-2.7,37.9,4.4,41,16.8C44.1,29.1,37.5,46.6,23.8,55.5C10.1,64.5,-10.6,64.8,-24.3,56.1C-38,47.4,-44.7,29.5,-49.8,10.4C-54.8,-8.6,-58.4,-29,-49.8,-47.5C-41.3,-66.1,-20.6,-82.8,-8.3,-76.2C4.1,-69.6,8.2,-39.7,16.7,-21.2Z"
     transform="translate(100 100)"
     id="path4">
    <animateTransform
       attributeType="xml"
       attributeName="transform"
       type="scale"
       from="0"
       to=".8"
       dur="1.5s"
       begin=".5s"
       additive="sum"
       repeatCount="indefinite" />
    <animate
       attributeName="opacity"
       values="0;.75;0"
       dur="1.5s"
       begin=".5s"
       repeatCount="indefinite" />
  </path>
  <path
     fill="#6b9ac4"
     opacity="0"
     d="M43,-31.2C52.3,-22.6,53.9,-5,50.3,11.7C46.7,28.3,37.7,43.9,25,48.8C12.4,53.7,-3.9,47.8,-18.9,40.2C-33.9,32.6,-47.7,23.3,-46.4,14.7C-45.1,6,-28.8,-2,-18.5,-10.7C-8.3,-19.5,-4.2,-29.1,6.3,-34.2C16.9,-39.3,33.7,-39.8,43,-31.2Z"
     transform="translate(100 100)"
     id="path6">
    <animateTransform
       attributeType="xml"
       attributeName="transform"
       type="scale"
       from="0"
       to=".8"
       dur="1.75s"
       additive="sum"
       repeatCount="indefinite" />
    <animate
       attributeName="opacity"
       values="0;.75;0"
       dur="1.75s"
       repeatCount="indefinite" />
  </path>
  <path
     fill="#6b9ac4"
     opacity="0"
     d="M51.9,-39.3C65.2,-24.7,72.4,-3.3,67.4,14.1C62.4,31.4,45.1,44.5,24.9,55.8C4.7,67.1,-18.3,76.5,-33.3,69.3C-48.2,62,-54.9,38,-53.3,19.5C-51.6,1,-41.5,-12,-31.2,-25.9C-20.9,-39.9,-10.5,-54.7,4.4,-58.2C19.3,-61.8,38.6,-54,51.9,-39.3Z"
     transform="translate(100 100)"
     id="path8">
    <animateTransform
       attributeType="xml"
       attributeName="transform"
       type="scale"
       from="0"
       to=".8"
       dur="1.25s"
       begin=".95s"
       additive="sum"
       repeatCount="indefinite" />
    <animate
       attributeName="opacity"
       values="0;.75;0"
       dur="1.25s"
       begin=".95s"
       repeatCount="indefinite" />
  </path>
  <path
     fill="#6b9ac4"
     opacity="0"
     d="M50.2,-48C57.7,-30.6,51.3,-10.2,45.1,7.6C38.8,25.3,32.8,40.4,23.5,42.4C14.3,44.3,1.8,33.2,-16.5,27.1C-34.8,21,-59,20,-66.3,9.1C-73.6,-1.8,-64,-22.6,-50.1,-41.3C-36.2,-60.1,-18.1,-76.9,1.6,-78.2C21.3,-79.5,42.7,-65.3,50.2,-48Z"
     transform="translate(100 100)"
     id="path10">
    <animateTransform
       attributeType="xml"
       attributeName="transform"
       type="scale"
       from="0"
       to=".8"
       dur="1.05s"
       begin=".15s"
       additive="sum"
       repeatCount="indefinite" />
    <animate
       attributeName="opacity"
       values="0;.75;0"
       dur="1.05s"
       begin=".15s"
       repeatCount="indefinite" />
  </path>
  <path
     fill="#97d8c4"
     opacity="0"
     d="M22.4,-14.7C27.9,-11,30.5,-1.7,28.7,6.8C26.9,15.2,20.8,22.9,14.1,24.2C7.4,25.5,0,20.4,-6.2,16.2C-12.4,11.9,-17.4,8.5,-18.6,4C-19.9,-0.6,-17.5,-6.3,-13.8,-9.6C-10,-12.9,-5,-13.8,1.7,-15.1C8.4,-16.5,16.9,-18.3,22.4,-14.7Z"
     transform="translate(100 100)"
     id="path12">
    <animateTransform
       attributeType="xml"
       attributeName="transform"
       type="scale"
       from="0"
       to=".8"
       dur=".95s"
       additive="sum"
       repeatCount="indefinite" />
    <animate
       attributeName="opacity"
       values="0;.75;0"
       dur=".95s"
       repeatCount="indefinite" />
  </path>
  <path
     fill="#4059ad"
     opacity="0"
     d="M64.1,-48C78.4,-33.2,82,-6.8,74.2,12.7C66.3,32.1,47,44.7,29.4,48.3C11.8,51.9,-4,46.5,-18.2,39.2C-32.3,31.8,-44.8,22.4,-45.8,12.1C-46.9,1.8,-36.4,-9.5,-26.9,-23.1C-17.3,-36.8,-8.7,-52.8,8.1,-59.3C24.9,-65.8,49.8,-62.7,64.1,-48Z"
     transform="translate(100 100)"
     id="path14">
    <animateTransform
       attributeType="xml"
       attributeName="transform"
       type="scale"
       from="0"
       to=".8"
       dur="1s"
       begin=".25s"
       additive="sum"
       repeatCount="indefinite" />
    <animate
       attributeName="opacity"
       values="0;.75;0"
       dur="1s"
       begin=".25s"
       repeatCount="indefinite" />
  </path>
</svg>
