<!-- https://www.blobmaker.app/ -->
<svg viewBox="0 0 200 200" xmlns="http://www.w3.org/2000/svg">
        <path
          fill="#eff2f1"
          opacity="0"
          d="M31.6,-57.3C42.5,-48.4,53.9,-43.1,53.1,-34.1C52.4,-25.1,39.5,-12.6,30.6,-5.1C21.8,2.3,17,4.7,20.1,17.7C23.2,30.7,34.1,54.4,32.1,68.3C30,82.3,15,86.5,-0.4,87.2C-15.8,87.9,-31.6,85,-45.4,77.9C-59.2,70.7,-70.9,59.2,-78.8,45.5C-86.7,31.8,-90.9,15.9,-86.2,2.7C-81.5,-10.5,-67.9,-20.9,-57,-29.5C-46.1,-38,-37.9,-44.7,-28.8,-54.6C-19.7,-64.5,-9.9,-77.8,0.2,-78.2C10.4,-78.6,20.7,-66.2,31.6,-57.3Z"
          transform="translate(100 100)"
        >
          <animateTransform
            attributeType="xml"
            attributeName="transform"
            type="scale"
            from="0"
            to=".8"
            dur="1s"
            additive="sum"
            repeatCount="indefinite"
          />
          <animate
            attributeName="opacity"
            values="0;.75;0"
            dur=".8s"
            repeatCount="indefinite"
          />
        </path>
        <path
          fill="#eff2f1"
          opacity="0"
            d="M35.8,-69.5C38.6,-60.5,27.7,-35.1,21.7,-20.8C15.6,-6.5,14.3,-3.2,19.7,3.1C25,9.4,36.9,18.8,39.4,26.9C41.9,35,35,41.8,26.8,42.8C18.7,43.9,9.3,39.2,4.7,31.1C0,23,0,11.6,-12.2,12.8C-24.3,14.1,-48.6,28.1,-60.4,28.1C-72.2,28.1,-71.5,14,-65.7,3.4C-59.8,-7.3,-48.7,-14.5,-37.9,-16.2C-27.1,-17.9,-16.4,-14,-10.2,-21C-3.9,-28,-1.9,-46,7.3,-58.7C16.5,-71.3,33,-78.6,35.8,-69.5Z"
          transform="translate(100 100)"
        >
          <animateTransform
            attributeType="xml"
            attributeName="transform"
            type="scale"
            from="0"
            to=".8"
            dur=".6s"
            begin=".5s"
            additive="sum"
            repeatCount="indefinite"
          />
          <animate
            attributeName="opacity"
            values="0;.75;0"
            dur=".6s"
            begin=".5s"
            repeatCount="indefinite"
          />
        </path>
        <path
          fill="#eff2f1"
          opacity="0"
          d="M10.2,-20.6C13.6,-15.7,17,-13.7,25,-10.8C33,-7.9,45.6,-3.9,48.1,1.4C50.5,6.7,42.8,13.5,36.9,20.1C31,26.7,27,33.3,21.2,45.5C15.3,57.7,7.7,75.7,0.3,75.2C-7.1,74.6,-14.1,55.7,-15.6,40.9C-17,26.1,-12.8,15.6,-15,9.4C-17.1,3.3,-25.6,1.7,-31.9,-3.7C-38.2,-9,-42.5,-18,-39.5,-22.6C-36.5,-27.2,-26.3,-27.5,-18.5,-29.9C-10.7,-32.3,-5.3,-36.8,-1,-35.1C3.4,-33.5,6.8,-25.6,10.2,-20.6Z"
        transform="translate(100 100)"
        >
          <animateTransform
            attributeType="xml"
            attributeName="transform"
            type="scale"
            from="0"
            to=".8"
            dur=".75s"
            additive="sum"
            repeatCount="indefinite"
          />
          <animate
            attributeName="opacity"
            values="0;.75;0"
            dur=".75s"
            repeatCount="indefinite"
          />
        </path>
        <path
          fill="#eff2f1"
          opacity="0"
          d="M21.8,-35.7C34.9,-30.1,56.9,-37.8,63.2,-34.1C69.6,-30.4,60.3,-15.2,57.5,-1.6C54.6,11.9,58.2,23.8,57.8,37.8C57.4,51.8,52.9,67.9,42.6,76.3C32.3,84.7,16.2,85.5,2.4,81.3C-11.3,77.1,-22.6,67.9,-35.2,60.8C-47.8,53.7,-61.8,48.7,-61.6,38.9C-61.4,29.1,-47.2,14.6,-39.9,4.2C-32.7,-6.2,-32.5,-12.4,-30.9,-19.2C-29.4,-26.1,-26.5,-33.5,-21.1,-43.6C-15.7,-53.7,-7.9,-66.5,-1.8,-63.4C4.3,-60.3,8.6,-41.4,21.8,-35.7Z"
         transform="translate(100 100)"
        >
          <animateTransform
            attributeType="xml"
            attributeName="transform"
            type="scale"
            from="0"
            to=".8"
            dur=".5s"
            begin=".95s"
            additive="sum"
            repeatCount="indefinite"
          />
          <animate
            attributeName="opacity"
            values="0;.75;0"
            dur=".5s"
            begin=".95s"
            repeatCount="indefinite"
          />
        </path>
        <path
          fill="#eff2f1"
          opacity="0"
          d="M26.6,-60.2C27,-45.9,14.6,-23.6,9.1,-12.2C3.5,-0.8,4.9,-0.4,13.6,5C22.2,10.4,38.1,20.8,38.2,22.8C38.3,24.8,22.6,18.4,13.6,24.5C4.6,30.6,2.3,49.2,-0.8,50.5C-3.8,51.8,-7.6,35.9,-20.5,32C-33.4,28.1,-55.3,36.3,-58.5,33C-61.8,29.7,-46.4,14.8,-35.3,6.4C-24.3,-2.1,-17.6,-4.2,-20.7,-18.5C-23.7,-32.7,-36.6,-59.2,-34.8,-72.6C-32.9,-86.1,-16.5,-86.7,-1.7,-83.8C13.1,-80.9,26.2,-74.5,26.6,-60.2Z"
          transform="translate(100 100)"
        >
          <animateTransform
            attributeType="xml"
            attributeName="transform"
            type="scale"
            from="0"
            to=".8"
            dur=".75s"
            begin=".15s"
            additive="sum"
            repeatCount="indefinite"
          />
          <animate
            attributeName="opacity"
            values="0;.75;0"
            dur=".75s"
            begin=".15s"
            repeatCount="indefinite"
          />
        </path>
        <path
          fill="#eff2f1"
          opacity="0"
          d="M9.9,-20.2C17.6,-12.8,31.7,-19.6,39.1,-18.6C46.4,-17.7,47,-8.8,46.5,-0.3C46,8.3,44.5,16.6,41.1,24.3C37.6,32,32.2,39.2,25,45.7C17.8,52.3,8.9,58.2,-0.5,59.1C-10,60,-19.9,55.9,-21.3,46C-22.7,36.1,-15.6,20.5,-25.7,11.9C-35.8,3.2,-63.1,1.6,-73.7,-6.1C-84.4,-13.9,-78.2,-27.8,-67.1,-34.5C-55.9,-41.3,-39.7,-41,-27.7,-45.8C-15.6,-50.7,-7.8,-60.7,-3.3,-55C1.2,-49.2,2.3,-27.6,9.9,-20.2Z"
          transform="translate(100 100)"
        >
          <animateTransform
            attributeType="xml"
            attributeName="transform"
            type="scale"
            from="0"
            to=".8"
            dur=".95s"
            additive="sum"
            repeatCount="indefinite"
          />
          <animate
            attributeName="opacity"
            values="0;.75;0"
            dur=".95s"
            repeatCount="indefinite"
          />
        </path>
        <path
          fill="#eff2f1"
          opacity="0"
          d="M18.3,-26.5C28.2,-25.9,43.9,-30.2,52.6,-26.6C61.4,-23,63.1,-11.5,65.4,1.3C67.7,14.2,70.7,28.4,61.2,30.5C51.6,32.7,29.6,22.8,17.3,26.2C5,29.6,2.5,46.3,-1.8,49.4C-6,52.4,-12.1,41.9,-21.2,36.7C-30.4,31.5,-42.6,31.6,-50.8,26.4C-58.9,21.1,-63,10.6,-54.7,4.8C-46.4,-1,-25.8,-2,-19.8,-11C-13.8,-19.9,-22.5,-36.9,-21.6,-42.8C-20.7,-48.7,-10.4,-43.5,-3.1,-38.1C4.2,-32.7,8.3,-27.2,18.3,-26.5Z"
          transform="translate(100 100)"
        >
          <animateTransform
            attributeType="xml"
            attributeName="transform"
            type="scale"
            from="0"
            to=".8"
            dur="1s"
            begin=".25s"
            additive="sum"
            repeatCount="indefinite"
          />
          <animate
            attributeName="opacity"
            values="0;.75;0"
            dur="1s"
            begin=".25s"
            repeatCount="indefinite"
          />
        </path>
      </svg>